<svg xmlns="http://www.w3.org/2000/svg" xmlns:xlink="http://www.w3.org/1999/xlink" width="525" zoomAndPan="magnify" viewBox="0 0 393.75 85.499998" height="114" preserveAspectRatio="xMidYMid meet" version="1.0"><defs><g/><clipPath id="8be76fbd23"><path d="M 1.019531 0 L 392.480469 0 L 392.480469 85.003906 L 1.019531 85.003906 Z M 1.019531 0 " clip-rule="nonzero"/></clipPath><clipPath id="eb94df78a2"><rect x="0" width="370" y="0" height="18"/></clipPath><clipPath id="ee889d10d3"><rect x="0" width="257" y="0" height="54"/></clipPath></defs><g clip-path="url(#8be76fbd23)"><path fill="#ffffff" d="M 1.019531 0 L 392.480469 0 L 392.480469 85.003906 L 1.019531 85.003906 Z M 1.019531 0 " fill-opacity="1" fill-rule="nonzero"/></g><g transform="matrix(1, 0, 0, 1, 13, 61)"><g clip-path="url(#eb94df78a2)"><g fill="#f4b61c" fill-opacity="1"><g transform="translate(1.151502, 14.211079)"><g><path d="M 3.0625 -8.734375 L 3.0625 -5.703125 L 6.90625 -5.703125 L 6.90625 -4.171875 L 3.0625 -4.171875 L 3.0625 0 L 1.140625 0 L 1.140625 -10.25 L 7.609375 -10.25 L 7.609375 -8.734375 Z M 3.0625 -8.734375 "/></g></g></g><g fill="#f4b61c" fill-opacity="1"><g transform="translate(12.016478, 14.211079)"><g><path d="M 10.921875 -5.125 C 10.921875 -4.375 10.796875 -3.675781 10.546875 -3.03125 C 10.296875 -2.394531 9.941406 -1.84375 9.484375 -1.375 C 9.035156 -0.90625 8.492188 -0.539062 7.859375 -0.28125 C 7.222656 -0.0195312 6.515625 0.109375 5.734375 0.109375 C 4.953125 0.109375 4.242188 -0.0195312 3.609375 -0.28125 C 2.972656 -0.539062 2.425781 -0.90625 1.96875 -1.375 C 1.507812 -1.84375 1.15625 -2.394531 0.90625 -3.03125 C 0.65625 -3.675781 0.53125 -4.375 0.53125 -5.125 C 0.53125 -5.875 0.65625 -6.566406 0.90625 -7.203125 C 1.15625 -7.847656 1.507812 -8.40625 1.96875 -8.875 C 2.425781 -9.34375 2.972656 -9.707031 3.609375 -9.96875 C 4.242188 -10.238281 4.953125 -10.375 5.734375 -10.375 C 6.253906 -10.375 6.742188 -10.3125 7.203125 -10.1875 C 7.660156 -10.070312 8.078125 -9.898438 8.453125 -9.671875 C 8.835938 -9.453125 9.179688 -9.1875 9.484375 -8.875 C 9.796875 -8.5625 10.054688 -8.210938 10.265625 -7.828125 C 10.484375 -7.441406 10.644531 -7.019531 10.75 -6.5625 C 10.863281 -6.101562 10.921875 -5.625 10.921875 -5.125 Z M 8.96875 -5.125 C 8.96875 -5.6875 8.890625 -6.191406 8.734375 -6.640625 C 8.585938 -7.085938 8.375 -7.46875 8.09375 -7.78125 C 7.820312 -8.09375 7.484375 -8.332031 7.078125 -8.5 C 6.679688 -8.664062 6.234375 -8.75 5.734375 -8.75 C 5.234375 -8.75 4.78125 -8.664062 4.375 -8.5 C 3.976562 -8.332031 3.640625 -8.09375 3.359375 -7.78125 C 3.078125 -7.46875 2.859375 -7.085938 2.703125 -6.640625 C 2.554688 -6.191406 2.484375 -5.6875 2.484375 -5.125 C 2.484375 -4.5625 2.554688 -4.054688 2.703125 -3.609375 C 2.859375 -3.160156 3.078125 -2.78125 3.359375 -2.46875 C 3.640625 -2.164062 3.976562 -1.929688 4.375 -1.765625 C 4.78125 -1.597656 5.234375 -1.515625 5.734375 -1.515625 C 6.234375 -1.515625 6.679688 -1.597656 7.078125 -1.765625 C 7.484375 -1.929688 7.820312 -2.164062 8.09375 -2.46875 C 8.375 -2.78125 8.585938 -3.160156 8.734375 -3.609375 C 8.890625 -4.054688 8.96875 -4.5625 8.96875 -5.125 Z M 8.96875 -5.125 "/></g></g></g><g fill="#f4b61c" fill-opacity="1"><g transform="translate(26.313046, 14.211079)"><g><path d="M 4.234375 -5.375 C 4.597656 -5.375 4.910156 -5.414062 5.171875 -5.5 C 5.441406 -5.59375 5.660156 -5.71875 5.828125 -5.875 C 6.003906 -6.039062 6.132812 -6.234375 6.21875 -6.453125 C 6.3125 -6.671875 6.359375 -6.910156 6.359375 -7.171875 C 6.359375 -7.679688 6.1875 -8.078125 5.84375 -8.359375 C 5.5 -8.640625 4.972656 -8.78125 4.265625 -8.78125 L 3.046875 -8.78125 L 3.046875 -5.375 Z M 9.15625 0 L 7.421875 0 C 7.097656 0 6.863281 -0.128906 6.71875 -0.390625 L 4.5625 -3.671875 C 4.476562 -3.796875 4.390625 -3.882812 4.296875 -3.9375 C 4.203125 -3.988281 4.054688 -4.015625 3.859375 -4.015625 L 3.046875 -4.015625 L 3.046875 0 L 1.140625 0 L 1.140625 -10.25 L 4.265625 -10.25 C 4.960938 -10.25 5.5625 -10.175781 6.0625 -10.03125 C 6.5625 -9.894531 6.96875 -9.695312 7.28125 -9.4375 C 7.601562 -9.175781 7.835938 -8.863281 7.984375 -8.5 C 8.140625 -8.132812 8.21875 -7.738281 8.21875 -7.3125 C 8.21875 -6.957031 8.164062 -6.625 8.0625 -6.3125 C 7.96875 -6.007812 7.820312 -5.734375 7.625 -5.484375 C 7.4375 -5.234375 7.203125 -5.015625 6.921875 -4.828125 C 6.640625 -4.640625 6.316406 -4.492188 5.953125 -4.390625 C 6.078125 -4.316406 6.191406 -4.226562 6.296875 -4.125 C 6.398438 -4.03125 6.492188 -3.914062 6.578125 -3.78125 Z M 9.15625 0 "/></g></g></g><g fill="#f4b61c" fill-opacity="1"><g transform="translate(38.26989, 14.211079)"><g/></g></g><g fill="#f4b61c" fill-opacity="1"><g transform="translate(44.554678, 14.211079)"><g><path d="M 9.796875 -10.25 L 9.796875 0 L 8.8125 0 C 8.65625 0 8.523438 -0.0234375 8.421875 -0.078125 C 8.328125 -0.128906 8.234375 -0.210938 8.140625 -0.328125 L 2.78125 -7.171875 C 2.8125 -6.859375 2.828125 -6.566406 2.828125 -6.296875 L 2.828125 0 L 1.140625 0 L 1.140625 -10.25 L 2.140625 -10.25 C 2.222656 -10.25 2.289062 -10.242188 2.34375 -10.234375 C 2.40625 -10.234375 2.457031 -10.222656 2.5 -10.203125 C 2.550781 -10.179688 2.597656 -10.148438 2.640625 -10.109375 C 2.679688 -10.066406 2.726562 -10.015625 2.78125 -9.953125 L 8.15625 -3.078125 C 8.144531 -3.242188 8.132812 -3.40625 8.125 -3.5625 C 8.113281 -3.726562 8.109375 -3.878906 8.109375 -4.015625 L 8.109375 -10.25 Z M 9.796875 -10.25 "/></g></g></g><g fill="#f4b61c" fill-opacity="1"><g transform="translate(58.319491, 14.211079)"><g><path d="M 10.921875 -5.125 C 10.921875 -4.375 10.796875 -3.675781 10.546875 -3.03125 C 10.296875 -2.394531 9.941406 -1.84375 9.484375 -1.375 C 9.035156 -0.90625 8.492188 -0.539062 7.859375 -0.28125 C 7.222656 -0.0195312 6.515625 0.109375 5.734375 0.109375 C 4.953125 0.109375 4.242188 -0.0195312 3.609375 -0.28125 C 2.972656 -0.539062 2.425781 -0.90625 1.96875 -1.375 C 1.507812 -1.84375 1.15625 -2.394531 0.90625 -3.03125 C 0.65625 -3.675781 0.53125 -4.375 0.53125 -5.125 C 0.53125 -5.875 0.65625 -6.566406 0.90625 -7.203125 C 1.15625 -7.847656 1.507812 -8.40625 1.96875 -8.875 C 2.425781 -9.34375 2.972656 -9.707031 3.609375 -9.96875 C 4.242188 -10.238281 4.953125 -10.375 5.734375 -10.375 C 6.253906 -10.375 6.742188 -10.3125 7.203125 -10.1875 C 7.660156 -10.070312 8.078125 -9.898438 8.453125 -9.671875 C 8.835938 -9.453125 9.179688 -9.1875 9.484375 -8.875 C 9.796875 -8.5625 10.054688 -8.210938 10.265625 -7.828125 C 10.484375 -7.441406 10.644531 -7.019531 10.75 -6.5625 C 10.863281 -6.101562 10.921875 -5.625 10.921875 -5.125 Z M 8.96875 -5.125 C 8.96875 -5.6875 8.890625 -6.191406 8.734375 -6.640625 C 8.585938 -7.085938 8.375 -7.46875 8.09375 -7.78125 C 7.820312 -8.09375 7.484375 -8.332031 7.078125 -8.5 C 6.679688 -8.664062 6.234375 -8.75 5.734375 -8.75 C 5.234375 -8.75 4.78125 -8.664062 4.375 -8.5 C 3.976562 -8.332031 3.640625 -8.09375 3.359375 -7.78125 C 3.078125 -7.46875 2.859375 -7.085938 2.703125 -6.640625 C 2.554688 -6.191406 2.484375 -5.6875 2.484375 -5.125 C 2.484375 -4.5625 2.554688 -4.054688 2.703125 -3.609375 C 2.859375 -3.160156 3.078125 -2.78125 3.359375 -2.46875 C 3.640625 -2.164062 3.976562 -1.929688 4.375 -1.765625 C 4.78125 -1.597656 5.234375 -1.515625 5.734375 -1.515625 C 6.234375 -1.515625 6.679688 -1.597656 7.078125 -1.765625 C 7.484375 -1.929688 7.820312 -2.164062 8.09375 -2.46875 C 8.375 -2.78125 8.585938 -3.160156 8.734375 -3.609375 C 8.890625 -4.054688 8.96875 -4.5625 8.96875 -5.125 Z M 8.96875 -5.125 "/></g></g></g><g fill="#f4b61c" fill-opacity="1"><g transform="translate(72.616059, 14.211079)"><g><path d="M 4.234375 -5.375 C 4.597656 -5.375 4.910156 -5.414062 5.171875 -5.5 C 5.441406 -5.59375 5.660156 -5.71875 5.828125 -5.875 C 6.003906 -6.039062 6.132812 -6.234375 6.21875 -6.453125 C 6.3125 -6.671875 6.359375 -6.910156 6.359375 -7.171875 C 6.359375 -7.679688 6.1875 -8.078125 5.84375 -8.359375 C 5.5 -8.640625 4.972656 -8.78125 4.265625 -8.78125 L 3.046875 -8.78125 L 3.046875 -5.375 Z M 9.15625 0 L 7.421875 0 C 7.097656 0 6.863281 -0.128906 6.71875 -0.390625 L 4.5625 -3.671875 C 4.476562 -3.796875 4.390625 -3.882812 4.296875 -3.9375 C 4.203125 -3.988281 4.054688 -4.015625 3.859375 -4.015625 L 3.046875 -4.015625 L 3.046875 0 L 1.140625 0 L 1.140625 -10.25 L 4.265625 -10.25 C 4.960938 -10.25 5.5625 -10.175781 6.0625 -10.03125 C 6.5625 -9.894531 6.96875 -9.695312 7.28125 -9.4375 C 7.601562 -9.175781 7.835938 -8.863281 7.984375 -8.5 C 8.140625 -8.132812 8.21875 -7.738281 8.21875 -7.3125 C 8.21875 -6.957031 8.164062 -6.625 8.0625 -6.3125 C 7.96875 -6.007812 7.820312 -5.734375 7.625 -5.484375 C 7.4375 -5.234375 7.203125 -5.015625 6.921875 -4.828125 C 6.640625 -4.640625 6.316406 -4.492188 5.953125 -4.390625 C 6.078125 -4.316406 6.191406 -4.226562 6.296875 -4.125 C 6.398438 -4.03125 6.492188 -3.914062 6.578125 -3.78125 Z M 9.15625 0 "/></g></g></g><g fill="#f4b61c" fill-opacity="1"><g transform="translate(84.572904, 14.211079)"><g><path d="M 8.3125 -8.6875 L 5.21875 -8.6875 L 5.21875 0 L 3.3125 0 L 3.3125 -8.6875 L 0.21875 -8.6875 L 0.21875 -10.25 L 8.3125 -10.25 Z M 8.3125 -8.6875 "/></g></g></g><g fill="#f4b61c" fill-opacity="1"><g transform="translate(95.920004, 14.211079)"><g><path d="M 9.796875 -10.25 L 9.796875 0 L 7.875 0 L 7.875 -4.484375 L 3.0625 -4.484375 L 3.0625 0 L 1.140625 0 L 1.140625 -10.25 L 3.0625 -10.25 L 3.0625 -5.84375 L 7.875 -5.84375 L 7.875 -10.25 Z M 9.796875 -10.25 "/></g></g></g><g fill="#f4b61c" fill-opacity="1"><g transform="translate(109.684818, 14.211079)"><g/></g></g><g fill="#f4b61c" fill-opacity="1"><g transform="translate(115.969606, 14.211079)"><g><path d="M 9.9375 -10.25 L 5.78125 0 L 4.0625 0 L -0.078125 -10.25 L 1.453125 -10.25 C 1.617188 -10.25 1.753906 -10.207031 1.859375 -10.125 C 1.960938 -10.050781 2.039062 -9.953125 2.09375 -9.828125 L 4.515625 -3.5625 C 4.585938 -3.363281 4.660156 -3.140625 4.734375 -2.890625 C 4.816406 -2.648438 4.890625 -2.398438 4.953125 -2.140625 C 5.003906 -2.398438 5.0625 -2.648438 5.125 -2.890625 C 5.195312 -3.140625 5.273438 -3.363281 5.359375 -3.5625 L 7.765625 -9.828125 C 7.796875 -9.929688 7.867188 -10.023438 7.984375 -10.109375 C 8.097656 -10.203125 8.234375 -10.25 8.390625 -10.25 Z M 9.9375 -10.25 "/></g></g></g><g fill="#f4b61c" fill-opacity="1"><g transform="translate(128.656731, 14.211079)"><g><path d="M 6.5625 -3.875 L 5.3125 -7.28125 C 5.25 -7.4375 5.179688 -7.617188 5.109375 -7.828125 C 5.046875 -8.035156 4.984375 -8.257812 4.921875 -8.5 C 4.859375 -8.257812 4.789062 -8.03125 4.71875 -7.8125 C 4.65625 -7.601562 4.597656 -7.421875 4.546875 -7.265625 L 3.296875 -3.875 Z M 9.9375 0 L 8.453125 0 C 8.285156 0 8.148438 -0.0390625 8.046875 -0.125 C 7.941406 -0.207031 7.863281 -0.3125 7.8125 -0.4375 L 7.046875 -2.53125 L 2.796875 -2.53125 L 2.03125 -0.4375 C 2 -0.320312 1.925781 -0.21875 1.8125 -0.125 C 1.707031 -0.0390625 1.570312 0 1.40625 0 L -0.078125 0 L 3.953125 -10.25 L 5.90625 -10.25 Z M 9.9375 0 "/></g></g></g><g fill="#f4b61c" fill-opacity="1"><g transform="translate(141.343857, 14.211079)"><g><path d="M 9.796875 -10.25 L 9.796875 0 L 8.8125 0 C 8.65625 0 8.523438 -0.0234375 8.421875 -0.078125 C 8.328125 -0.128906 8.234375 -0.210938 8.140625 -0.328125 L 2.78125 -7.171875 C 2.8125 -6.859375 2.828125 -6.566406 2.828125 -6.296875 L 2.828125 0 L 1.140625 0 L 1.140625 -10.25 L 2.140625 -10.25 C 2.222656 -10.25 2.289062 -10.242188 2.34375 -10.234375 C 2.40625 -10.234375 2.457031 -10.222656 2.5 -10.203125 C 2.550781 -10.179688 2.597656 -10.148438 2.640625 -10.109375 C 2.679688 -10.066406 2.726562 -10.015625 2.78125 -9.953125 L 8.15625 -3.078125 C 8.144531 -3.242188 8.132812 -3.40625 8.125 -3.5625 C 8.113281 -3.726562 8.109375 -3.878906 8.109375 -4.015625 L 8.109375 -10.25 Z M 9.796875 -10.25 "/></g></g></g><g fill="#f4b61c" fill-opacity="1"><g transform="translate(155.108671, 14.211079)"><g><path d="M 8.1875 -2.421875 C 8.289062 -2.421875 8.382812 -2.378906 8.46875 -2.296875 L 9.21875 -1.484375 C 8.800781 -0.960938 8.285156 -0.566406 7.671875 -0.296875 C 7.066406 -0.0234375 6.335938 0.109375 5.484375 0.109375 C 4.722656 0.109375 4.039062 -0.0195312 3.4375 -0.28125 C 2.832031 -0.539062 2.3125 -0.898438 1.875 -1.359375 C 1.445312 -1.828125 1.117188 -2.378906 0.890625 -3.015625 C 0.660156 -3.660156 0.546875 -4.363281 0.546875 -5.125 C 0.546875 -5.894531 0.664062 -6.597656 0.90625 -7.234375 C 1.15625 -7.878906 1.503906 -8.429688 1.953125 -8.890625 C 2.398438 -9.359375 2.929688 -9.722656 3.546875 -9.984375 C 4.171875 -10.242188 4.859375 -10.375 5.609375 -10.375 C 6.359375 -10.375 7.019531 -10.25 7.59375 -10 C 8.175781 -9.757812 8.671875 -9.4375 9.078125 -9.03125 L 8.4375 -8.15625 C 8.40625 -8.09375 8.359375 -8.039062 8.296875 -8 C 8.234375 -7.957031 8.148438 -7.9375 8.046875 -7.9375 C 7.972656 -7.9375 7.898438 -7.957031 7.828125 -8 C 7.753906 -8.039062 7.671875 -8.085938 7.578125 -8.140625 C 7.492188 -8.203125 7.390625 -8.269531 7.265625 -8.34375 C 7.148438 -8.414062 7.015625 -8.476562 6.859375 -8.53125 C 6.703125 -8.59375 6.519531 -8.644531 6.3125 -8.6875 C 6.113281 -8.726562 5.878906 -8.75 5.609375 -8.75 C 5.148438 -8.75 4.726562 -8.664062 4.34375 -8.5 C 3.96875 -8.332031 3.640625 -8.09375 3.359375 -7.78125 C 3.085938 -7.476562 2.875 -7.101562 2.71875 -6.65625 C 2.570312 -6.207031 2.5 -5.695312 2.5 -5.125 C 2.5 -4.550781 2.578125 -4.039062 2.734375 -3.59375 C 2.898438 -3.144531 3.125 -2.765625 3.40625 -2.453125 C 3.6875 -2.148438 4.015625 -1.914062 4.390625 -1.75 C 4.765625 -1.582031 5.171875 -1.5 5.609375 -1.5 C 5.867188 -1.5 6.101562 -1.515625 6.3125 -1.546875 C 6.519531 -1.578125 6.710938 -1.617188 6.890625 -1.671875 C 7.078125 -1.734375 7.25 -1.8125 7.40625 -1.90625 C 7.5625 -2.007812 7.71875 -2.132812 7.875 -2.28125 C 7.914062 -2.320312 7.960938 -2.351562 8.015625 -2.375 C 8.066406 -2.40625 8.125 -2.421875 8.1875 -2.421875 Z M 8.1875 -2.421875 "/></g></g></g><g fill="#f4b61c" fill-opacity="1"><g transform="translate(167.327852, 14.211079)"><g><path d="M 10.921875 -5.125 C 10.921875 -4.375 10.796875 -3.675781 10.546875 -3.03125 C 10.296875 -2.394531 9.941406 -1.84375 9.484375 -1.375 C 9.035156 -0.90625 8.492188 -0.539062 7.859375 -0.28125 C 7.222656 -0.0195312 6.515625 0.109375 5.734375 0.109375 C 4.953125 0.109375 4.242188 -0.0195312 3.609375 -0.28125 C 2.972656 -0.539062 2.425781 -0.90625 1.96875 -1.375 C 1.507812 -1.84375 1.15625 -2.394531 0.90625 -3.03125 C 0.65625 -3.675781 0.53125 -4.375 0.53125 -5.125 C 0.53125 -5.875 0.65625 -6.566406 0.90625 -7.203125 C 1.15625 -7.847656 1.507812 -8.40625 1.96875 -8.875 C 2.425781 -9.34375 2.972656 -9.707031 3.609375 -9.96875 C 4.242188 -10.238281 4.953125 -10.375 5.734375 -10.375 C 6.253906 -10.375 6.742188 -10.3125 7.203125 -10.1875 C 7.660156 -10.070312 8.078125 -9.898438 8.453125 -9.671875 C 8.835938 -9.453125 9.179688 -9.1875 9.484375 -8.875 C 9.796875 -8.5625 10.054688 -8.210938 10.265625 -7.828125 C 10.484375 -7.441406 10.644531 -7.019531 10.75 -6.5625 C 10.863281 -6.101562 10.921875 -5.625 10.921875 -5.125 Z M 8.96875 -5.125 C 8.96875 -5.6875 8.890625 -6.191406 8.734375 -6.640625 C 8.585938 -7.085938 8.375 -7.46875 8.09375 -7.78125 C 7.820312 -8.09375 7.484375 -8.332031 7.078125 -8.5 C 6.679688 -8.664062 6.234375 -8.75 5.734375 -8.75 C 5.234375 -8.75 4.78125 -8.664062 4.375 -8.5 C 3.976562 -8.332031 3.640625 -8.09375 3.359375 -7.78125 C 3.078125 -7.46875 2.859375 -7.085938 2.703125 -6.640625 C 2.554688 -6.191406 2.484375 -5.6875 2.484375 -5.125 C 2.484375 -4.5625 2.554688 -4.054688 2.703125 -3.609375 C 2.859375 -3.160156 3.078125 -2.78125 3.359375 -2.46875 C 3.640625 -2.164062 3.976562 -1.929688 4.375 -1.765625 C 4.78125 -1.597656 5.234375 -1.515625 5.734375 -1.515625 C 6.234375 -1.515625 6.679688 -1.597656 7.078125 -1.765625 C 7.484375 -1.929688 7.820312 -2.164062 8.09375 -2.46875 C 8.375 -2.78125 8.585938 -3.160156 8.734375 -3.609375 C 8.890625 -4.054688 8.96875 -4.5625 8.96875 -5.125 Z M 8.96875 -5.125 "/></g></g></g><g fill="#f4b61c" fill-opacity="1"><g transform="translate(181.62442, 14.211079)"><g><path d="M 5.265625 -1.546875 C 5.640625 -1.546875 5.972656 -1.601562 6.265625 -1.71875 C 6.554688 -1.84375 6.800781 -2.015625 7 -2.234375 C 7.195312 -2.460938 7.347656 -2.734375 7.453125 -3.046875 C 7.554688 -3.367188 7.609375 -3.722656 7.609375 -4.109375 L 7.609375 -10.25 L 9.515625 -10.25 L 9.515625 -4.109375 C 9.515625 -3.503906 9.414062 -2.941406 9.21875 -2.421875 C 9.03125 -1.898438 8.75 -1.453125 8.375 -1.078125 C 8.007812 -0.703125 7.5625 -0.410156 7.03125 -0.203125 C 6.507812 0.00390625 5.921875 0.109375 5.265625 0.109375 C 4.609375 0.109375 4.015625 0.00390625 3.484375 -0.203125 C 2.960938 -0.410156 2.519531 -0.703125 2.15625 -1.078125 C 1.789062 -1.453125 1.507812 -1.898438 1.3125 -2.421875 C 1.113281 -2.941406 1.015625 -3.503906 1.015625 -4.109375 L 1.015625 -10.25 L 2.921875 -10.25 L 2.921875 -4.125 C 2.921875 -3.726562 2.972656 -3.367188 3.078125 -3.046875 C 3.179688 -2.734375 3.332031 -2.460938 3.53125 -2.234375 C 3.738281 -2.015625 3.988281 -1.84375 4.28125 -1.71875 C 4.570312 -1.601562 4.898438 -1.546875 5.265625 -1.546875 Z M 5.265625 -1.546875 "/></g></g></g><g fill="#f4b61c" fill-opacity="1"><g transform="translate(194.992188, 14.211079)"><g><path d="M 9.9375 -10.25 L 5.78125 0 L 4.0625 0 L -0.078125 -10.25 L 1.453125 -10.25 C 1.617188 -10.25 1.753906 -10.207031 1.859375 -10.125 C 1.960938 -10.050781 2.039062 -9.953125 2.09375 -9.828125 L 4.515625 -3.5625 C 4.585938 -3.363281 4.660156 -3.140625 4.734375 -2.890625 C 4.816406 -2.648438 4.890625 -2.398438 4.953125 -2.140625 C 5.003906 -2.398438 5.0625 -2.648438 5.125 -2.890625 C 5.195312 -3.140625 5.273438 -3.363281 5.359375 -3.5625 L 7.765625 -9.828125 C 7.796875 -9.929688 7.867188 -10.023438 7.984375 -10.109375 C 8.097656 -10.203125 8.234375 -10.25 8.390625 -10.25 Z M 9.9375 -10.25 "/></g></g></g><g fill="#f4b61c" fill-opacity="1"><g transform="translate(207.679304, 14.211079)"><g><path d="M 3.0625 -8.734375 L 3.0625 -5.890625 L 6.640625 -5.890625 L 6.640625 -4.421875 L 3.0625 -4.421875 L 3.0625 -1.53125 L 7.609375 -1.53125 L 7.609375 0 L 1.140625 0 L 1.140625 -10.25 L 7.609375 -10.25 L 7.609375 -8.734375 Z M 3.0625 -8.734375 "/></g></g></g><g fill="#f4b61c" fill-opacity="1"><g transform="translate(218.671909, 14.211079)"><g><path d="M 4.234375 -5.375 C 4.597656 -5.375 4.910156 -5.414062 5.171875 -5.5 C 5.441406 -5.59375 5.660156 -5.71875 5.828125 -5.875 C 6.003906 -6.039062 6.132812 -6.234375 6.21875 -6.453125 C 6.3125 -6.671875 6.359375 -6.910156 6.359375 -7.171875 C 6.359375 -7.679688 6.1875 -8.078125 5.84375 -8.359375 C 5.5 -8.640625 4.972656 -8.78125 4.265625 -8.78125 L 3.046875 -8.78125 L 3.046875 -5.375 Z M 9.15625 0 L 7.421875 0 C 7.097656 0 6.863281 -0.128906 6.71875 -0.390625 L 4.5625 -3.671875 C 4.476562 -3.796875 4.390625 -3.882812 4.296875 -3.9375 C 4.203125 -3.988281 4.054688 -4.015625 3.859375 -4.015625 L 3.046875 -4.015625 L 3.046875 0 L 1.140625 0 L 1.140625 -10.25 L 4.265625 -10.25 C 4.960938 -10.25 5.5625 -10.175781 6.0625 -10.03125 C 6.5625 -9.894531 6.96875 -9.695312 7.28125 -9.4375 C 7.601562 -9.175781 7.835938 -8.863281 7.984375 -8.5 C 8.140625 -8.132812 8.21875 -7.738281 8.21875 -7.3125 C 8.21875 -6.957031 8.164062 -6.625 8.0625 -6.3125 C 7.96875 -6.007812 7.820312 -5.734375 7.625 -5.484375 C 7.4375 -5.234375 7.203125 -5.015625 6.921875 -4.828125 C 6.640625 -4.640625 6.316406 -4.492188 5.953125 -4.390625 C 6.078125 -4.316406 6.191406 -4.226562 6.296875 -4.125 C 6.398438 -4.03125 6.492188 -3.914062 6.578125 -3.78125 Z M 9.15625 0 "/></g></g></g><g fill="#f4b61c" fill-opacity="1"><g transform="translate(230.628744, 14.211079)"><g/></g></g><g fill="#f4b61c" fill-opacity="1"><g transform="translate(236.913541, 14.211079)"><g><path d="M 8.1875 -2.421875 C 8.289062 -2.421875 8.382812 -2.378906 8.46875 -2.296875 L 9.21875 -1.484375 C 8.800781 -0.960938 8.285156 -0.566406 7.671875 -0.296875 C 7.066406 -0.0234375 6.335938 0.109375 5.484375 0.109375 C 4.722656 0.109375 4.039062 -0.0195312 3.4375 -0.28125 C 2.832031 -0.539062 2.3125 -0.898438 1.875 -1.359375 C 1.445312 -1.828125 1.117188 -2.378906 0.890625 -3.015625 C 0.660156 -3.660156 0.546875 -4.363281 0.546875 -5.125 C 0.546875 -5.894531 0.664062 -6.597656 0.90625 -7.234375 C 1.15625 -7.878906 1.503906 -8.429688 1.953125 -8.890625 C 2.398438 -9.359375 2.929688 -9.722656 3.546875 -9.984375 C 4.171875 -10.242188 4.859375 -10.375 5.609375 -10.375 C 6.359375 -10.375 7.019531 -10.25 7.59375 -10 C 8.175781 -9.757812 8.671875 -9.4375 9.078125 -9.03125 L 8.4375 -8.15625 C 8.40625 -8.09375 8.359375 -8.039062 8.296875 -8 C 8.234375 -7.957031 8.148438 -7.9375 8.046875 -7.9375 C 7.972656 -7.9375 7.898438 -7.957031 7.828125 -8 C 7.753906 -8.039062 7.671875 -8.085938 7.578125 -8.140625 C 7.492188 -8.203125 7.390625 -8.269531 7.265625 -8.34375 C 7.148438 -8.414062 7.015625 -8.476562 6.859375 -8.53125 C 6.703125 -8.59375 6.519531 -8.644531 6.3125 -8.6875 C 6.113281 -8.726562 5.878906 -8.75 5.609375 -8.75 C 5.148438 -8.75 4.726562 -8.664062 4.34375 -8.5 C 3.96875 -8.332031 3.640625 -8.09375 3.359375 -7.78125 C 3.085938 -7.476562 2.875 -7.101562 2.71875 -6.65625 C 2.570312 -6.207031 2.5 -5.695312 2.5 -5.125 C 2.5 -4.550781 2.578125 -4.039062 2.734375 -3.59375 C 2.898438 -3.144531 3.125 -2.765625 3.40625 -2.453125 C 3.6875 -2.148438 4.015625 -1.914062 4.390625 -1.75 C 4.765625 -1.582031 5.171875 -1.5 5.609375 -1.5 C 5.867188 -1.5 6.101562 -1.515625 6.3125 -1.546875 C 6.519531 -1.578125 6.710938 -1.617188 6.890625 -1.671875 C 7.078125 -1.734375 7.25 -1.8125 7.40625 -1.90625 C 7.5625 -2.007812 7.71875 -2.132812 7.875 -2.28125 C 7.914062 -2.320312 7.960938 -2.351562 8.015625 -2.375 C 8.066406 -2.40625 8.125 -2.421875 8.1875 -2.421875 Z M 8.1875 -2.421875 "/></g></g></g><g fill="#f4b61c" fill-opacity="1"><g transform="translate(249.132722, 14.211079)"><g><path d="M 3.0625 0 L 1.140625 0 L 1.140625 -10.25 L 3.0625 -10.25 Z M 3.0625 0 "/></g></g></g><g fill="#f4b61c" fill-opacity="1"><g transform="translate(256.176142, 14.211079)"><g><path d="M 8.3125 -8.6875 L 5.21875 -8.6875 L 5.21875 0 L 3.3125 0 L 3.3125 -8.6875 L 0.21875 -8.6875 L 0.21875 -10.25 L 8.3125 -10.25 Z M 8.3125 -8.6875 "/></g></g></g><g fill="#f4b61c" fill-opacity="1"><g transform="translate(267.523243, 14.211079)"><g><path d="M 5.546875 -3.96875 L 5.546875 0 L 3.640625 0 L 3.640625 -3.96875 L -0.09375 -10.25 L 1.59375 -10.25 C 1.757812 -10.25 1.890625 -10.207031 1.984375 -10.125 C 2.078125 -10.050781 2.160156 -9.953125 2.234375 -9.828125 L 4.09375 -6.40625 C 4.207031 -6.195312 4.304688 -6.003906 4.390625 -5.828125 C 4.472656 -5.648438 4.546875 -5.472656 4.609375 -5.296875 C 4.671875 -5.472656 4.738281 -5.648438 4.8125 -5.828125 C 4.894531 -6.003906 4.988281 -6.195312 5.09375 -6.40625 L 6.96875 -9.828125 C 7.019531 -9.929688 7.097656 -10.023438 7.203125 -10.109375 C 7.304688 -10.203125 7.4375 -10.25 7.59375 -10.25 L 9.28125 -10.25 Z M 5.546875 -3.96875 "/></g></g></g><g fill="#f4b61c" fill-opacity="1"><g transform="translate(279.550976, 14.211079)"><g/></g></g><g fill="#f4b61c" fill-opacity="1"><g transform="translate(285.835774, 14.211079)"><g><path d="M 8.1875 -2.421875 C 8.289062 -2.421875 8.382812 -2.378906 8.46875 -2.296875 L 9.21875 -1.484375 C 8.800781 -0.960938 8.285156 -0.566406 7.671875 -0.296875 C 7.066406 -0.0234375 6.335938 0.109375 5.484375 0.109375 C 4.722656 0.109375 4.039062 -0.0195312 3.4375 -0.28125 C 2.832031 -0.539062 2.3125 -0.898438 1.875 -1.359375 C 1.445312 -1.828125 1.117188 -2.378906 0.890625 -3.015625 C 0.660156 -3.660156 0.546875 -4.363281 0.546875 -5.125 C 0.546875 -5.894531 0.664062 -6.597656 0.90625 -7.234375 C 1.15625 -7.878906 1.503906 -8.429688 1.953125 -8.890625 C 2.398438 -9.359375 2.929688 -9.722656 3.546875 -9.984375 C 4.171875 -10.242188 4.859375 -10.375 5.609375 -10.375 C 6.359375 -10.375 7.019531 -10.25 7.59375 -10 C 8.175781 -9.757812 8.671875 -9.4375 9.078125 -9.03125 L 8.4375 -8.15625 C 8.40625 -8.09375 8.359375 -8.039062 8.296875 -8 C 8.234375 -7.957031 8.148438 -7.9375 8.046875 -7.9375 C 7.972656 -7.9375 7.898438 -7.957031 7.828125 -8 C 7.753906 -8.039062 7.671875 -8.085938 7.578125 -8.140625 C 7.492188 -8.203125 7.390625 -8.269531 7.265625 -8.34375 C 7.148438 -8.414062 7.015625 -8.476562 6.859375 -8.53125 C 6.703125 -8.59375 6.519531 -8.644531 6.3125 -8.6875 C 6.113281 -8.726562 5.878906 -8.75 5.609375 -8.75 C 5.148438 -8.75 4.726562 -8.664062 4.34375 -8.5 C 3.96875 -8.332031 3.640625 -8.09375 3.359375 -7.78125 C 3.085938 -7.476562 2.875 -7.101562 2.71875 -6.65625 C 2.570312 -6.207031 2.5 -5.695312 2.5 -5.125 C 2.5 -4.550781 2.578125 -4.039062 2.734375 -3.59375 C 2.898438 -3.144531 3.125 -2.765625 3.40625 -2.453125 C 3.6875 -2.148438 4.015625 -1.914062 4.390625 -1.75 C 4.765625 -1.582031 5.171875 -1.5 5.609375 -1.5 C 5.867188 -1.5 6.101562 -1.515625 6.3125 -1.546875 C 6.519531 -1.578125 6.710938 -1.617188 6.890625 -1.671875 C 7.078125 -1.734375 7.25 -1.8125 7.40625 -1.90625 C 7.5625 -2.007812 7.71875 -2.132812 7.875 -2.28125 C 7.914062 -2.320312 7.960938 -2.351562 8.015625 -2.375 C 8.066406 -2.40625 8.125 -2.421875 8.1875 -2.421875 Z M 8.1875 -2.421875 "/></g></g></g><g fill="#f4b61c" fill-opacity="1"><g transform="translate(298.054955, 14.211079)"><g><path d="M 10.921875 -5.125 C 10.921875 -4.375 10.796875 -3.675781 10.546875 -3.03125 C 10.296875 -2.394531 9.941406 -1.84375 9.484375 -1.375 C 9.035156 -0.90625 8.492188 -0.539062 7.859375 -0.28125 C 7.222656 -0.0195312 6.515625 0.109375 5.734375 0.109375 C 4.953125 0.109375 4.242188 -0.0195312 3.609375 -0.28125 C 2.972656 -0.539062 2.425781 -0.90625 1.96875 -1.375 C 1.507812 -1.84375 1.15625 -2.394531 0.90625 -3.03125 C 0.65625 -3.675781 0.53125 -4.375 0.53125 -5.125 C 0.53125 -5.875 0.65625 -6.566406 0.90625 -7.203125 C 1.15625 -7.847656 1.507812 -8.40625 1.96875 -8.875 C 2.425781 -9.34375 2.972656 -9.707031 3.609375 -9.96875 C 4.242188 -10.238281 4.953125 -10.375 5.734375 -10.375 C 6.253906 -10.375 6.742188 -10.3125 7.203125 -10.1875 C 7.660156 -10.070312 8.078125 -9.898438 8.453125 -9.671875 C 8.835938 -9.453125 9.179688 -9.1875 9.484375 -8.875 C 9.796875 -8.5625 10.054688 -8.210938 10.265625 -7.828125 C 10.484375 -7.441406 10.644531 -7.019531 10.75 -6.5625 C 10.863281 -6.101562 10.921875 -5.625 10.921875 -5.125 Z M 8.96875 -5.125 C 8.96875 -5.6875 8.890625 -6.191406 8.734375 -6.640625 C 8.585938 -7.085938 8.375 -7.46875 8.09375 -7.78125 C 7.820312 -8.09375 7.484375 -8.332031 7.078125 -8.5 C 6.679688 -8.664062 6.234375 -8.75 5.734375 -8.75 C 5.234375 -8.75 4.78125 -8.664062 4.375 -8.5 C 3.976562 -8.332031 3.640625 -8.09375 3.359375 -7.78125 C 3.078125 -7.46875 2.859375 -7.085938 2.703125 -6.640625 C 2.554688 -6.191406 2.484375 -5.6875 2.484375 -5.125 C 2.484375 -4.5625 2.554688 -4.054688 2.703125 -3.609375 C 2.859375 -3.160156 3.078125 -2.78125 3.359375 -2.46875 C 3.640625 -2.164062 3.976562 -1.929688 4.375 -1.765625 C 4.78125 -1.597656 5.234375 -1.515625 5.734375 -1.515625 C 6.234375 -1.515625 6.679688 -1.597656 7.078125 -1.765625 C 7.484375 -1.929688 7.820312 -2.164062 8.09375 -2.46875 C 8.375 -2.78125 8.585938 -3.160156 8.734375 -3.609375 C 8.890625 -4.054688 8.96875 -4.5625 8.96875 -5.125 Z M 8.96875 -5.125 "/></g></g></g><g fill="#f4b61c" fill-opacity="1"><g transform="translate(312.351523, 14.211079)"><g><path d="M 5.265625 -1.546875 C 5.640625 -1.546875 5.972656 -1.601562 6.265625 -1.71875 C 6.554688 -1.84375 6.800781 -2.015625 7 -2.234375 C 7.195312 -2.460938 7.347656 -2.734375 7.453125 -3.046875 C 7.554688 -3.367188 7.609375 -3.722656 7.609375 -4.109375 L 7.609375 -10.25 L 9.515625 -10.25 L 9.515625 -4.109375 C 9.515625 -3.503906 9.414062 -2.941406 9.21875 -2.421875 C 9.03125 -1.898438 8.75 -1.453125 8.375 -1.078125 C 8.007812 -0.703125 7.5625 -0.410156 7.03125 -0.203125 C 6.507812 0.00390625 5.921875 0.109375 5.265625 0.109375 C 4.609375 0.109375 4.015625 0.00390625 3.484375 -0.203125 C 2.960938 -0.410156 2.519531 -0.703125 2.15625 -1.078125 C 1.789062 -1.453125 1.507812 -1.898438 1.3125 -2.421875 C 1.113281 -2.941406 1.015625 -3.503906 1.015625 -4.109375 L 1.015625 -10.25 L 2.921875 -10.25 L 2.921875 -4.125 C 2.921875 -3.726562 2.972656 -3.367188 3.078125 -3.046875 C 3.179688 -2.734375 3.332031 -2.460938 3.53125 -2.234375 C 3.738281 -2.015625 3.988281 -1.84375 4.28125 -1.71875 C 4.570312 -1.601562 4.898438 -1.546875 5.265625 -1.546875 Z M 5.265625 -1.546875 "/></g></g></g><g fill="#f4b61c" fill-opacity="1"><g transform="translate(325.719291, 14.211079)"><g><path d="M 9.796875 -10.25 L 9.796875 0 L 8.8125 0 C 8.65625 0 8.523438 -0.0234375 8.421875 -0.078125 C 8.328125 -0.128906 8.234375 -0.210938 8.140625 -0.328125 L 2.78125 -7.171875 C 2.8125 -6.859375 2.828125 -6.566406 2.828125 -6.296875 L 2.828125 0 L 1.140625 0 L 1.140625 -10.25 L 2.140625 -10.25 C 2.222656 -10.25 2.289062 -10.242188 2.34375 -10.234375 C 2.40625 -10.234375 2.457031 -10.222656 2.5 -10.203125 C 2.550781 -10.179688 2.597656 -10.148438 2.640625 -10.109375 C 2.679688 -10.066406 2.726562 -10.015625 2.78125 -9.953125 L 8.15625 -3.078125 C 8.144531 -3.242188 8.132812 -3.40625 8.125 -3.5625 C 8.113281 -3.726562 8.109375 -3.878906 8.109375 -4.015625 L 8.109375 -10.25 Z M 9.796875 -10.25 "/></g></g></g><g fill="#f4b61c" fill-opacity="1"><g transform="translate(339.484115, 14.211079)"><g><path d="M 8.1875 -2.421875 C 8.289062 -2.421875 8.382812 -2.378906 8.46875 -2.296875 L 9.21875 -1.484375 C 8.800781 -0.960938 8.285156 -0.566406 7.671875 -0.296875 C 7.066406 -0.0234375 6.335938 0.109375 5.484375 0.109375 C 4.722656 0.109375 4.039062 -0.0195312 3.4375 -0.28125 C 2.832031 -0.539062 2.3125 -0.898438 1.875 -1.359375 C 1.445312 -1.828125 1.117188 -2.378906 0.890625 -3.015625 C 0.660156 -3.660156 0.546875 -4.363281 0.546875 -5.125 C 0.546875 -5.894531 0.664062 -6.597656 0.90625 -7.234375 C 1.15625 -7.878906 1.503906 -8.429688 1.953125 -8.890625 C 2.398438 -9.359375 2.929688 -9.722656 3.546875 -9.984375 C 4.171875 -10.242188 4.859375 -10.375 5.609375 -10.375 C 6.359375 -10.375 7.019531 -10.25 7.59375 -10 C 8.175781 -9.757812 8.671875 -9.4375 9.078125 -9.03125 L 8.4375 -8.15625 C 8.40625 -8.09375 8.359375 -8.039062 8.296875 -8 C 8.234375 -7.957031 8.148438 -7.9375 8.046875 -7.9375 C 7.972656 -7.9375 7.898438 -7.957031 7.828125 -8 C 7.753906 -8.039062 7.671875 -8.085938 7.578125 -8.140625 C 7.492188 -8.203125 7.390625 -8.269531 7.265625 -8.34375 C 7.148438 -8.414062 7.015625 -8.476562 6.859375 -8.53125 C 6.703125 -8.59375 6.519531 -8.644531 6.3125 -8.6875 C 6.113281 -8.726562 5.878906 -8.75 5.609375 -8.75 C 5.148438 -8.75 4.726562 -8.664062 4.34375 -8.5 C 3.96875 -8.332031 3.640625 -8.09375 3.359375 -7.78125 C 3.085938 -7.476562 2.875 -7.101562 2.71875 -6.65625 C 2.570312 -6.207031 2.5 -5.695312 2.5 -5.125 C 2.5 -4.550781 2.578125 -4.039062 2.734375 -3.59375 C 2.898438 -3.144531 3.125 -2.765625 3.40625 -2.453125 C 3.6875 -2.148438 4.015625 -1.914062 4.390625 -1.75 C 4.765625 -1.582031 5.171875 -1.5 5.609375 -1.5 C 5.867188 -1.5 6.101562 -1.515625 6.3125 -1.546875 C 6.519531 -1.578125 6.710938 -1.617188 6.890625 -1.671875 C 7.078125 -1.734375 7.25 -1.8125 7.40625 -1.90625 C 7.5625 -2.007812 7.71875 -2.132812 7.875 -2.28125 C 7.914062 -2.320312 7.960938 -2.351562 8.015625 -2.375 C 8.066406 -2.40625 8.125 -2.421875 8.1875 -2.421875 Z M 8.1875 -2.421875 "/></g></g></g><g fill="#f4b61c" fill-opacity="1"><g transform="translate(351.703276, 14.211079)"><g><path d="M 3.0625 0 L 1.140625 0 L 1.140625 -10.25 L 3.0625 -10.25 Z M 3.0625 0 "/></g></g></g><g fill="#f4b61c" fill-opacity="1"><g transform="translate(358.746715, 14.211079)"><g><path d="M 7.15625 -1.578125 L 7.15625 0 L 1.140625 0 L 1.140625 -10.25 L 3.046875 -10.25 L 3.046875 -1.578125 Z M 7.15625 -1.578125 "/></g></g></g></g></g><g transform="matrix(1, 0, 0, 1, 72, 9)"><g clip-path="url(#ee889d10d3)"><g fill="#f4b61c" fill-opacity="1"><g transform="translate(2.162532, 34.997938)"><g><path d="M 11.890625 4.046875 C 10.722656 4.046875 9.273438 3.347656 7.546875 1.953125 C 6.328125 1.753906 5.28125 1.492188 4.40625 1.171875 C 3.539062 0.847656 2.828125 0.457031 2.265625 0 C 1.460938 -0.675781 0.765625 -1.582031 0.171875 -2.71875 C -0.417969 -3.863281 -0.71875 -4.960938 -0.71875 -6.015625 C -0.71875 -6.804688 -0.535156 -7.515625 -0.171875 -8.140625 C 0.679688 -9.648438 1.757812 -10.40625 3.0625 -10.40625 C 4.0625 -10.40625 4.644531 -9.566406 4.8125 -7.890625 C 5.007812 -6.328125 5.171875 -5.082031 5.296875 -4.15625 C 5.429688 -3.226562 5.539062 -2.625 5.625 -2.34375 C 6.050781 -0.945312 6.773438 0.226562 7.796875 1.1875 C 8.992188 1.445312 10.285156 1.578125 11.671875 1.578125 C 14.742188 1.578125 17.6875 0.992188 20.5 -0.171875 C 21.695312 -0.679688 22.863281 -1.347656 24 -2.171875 C 25.132812 -2.992188 26.070312 -3.898438 26.8125 -4.890625 C 27.550781 -5.890625 27.921875 -6.859375 27.921875 -7.796875 C 27.921875 -9.128906 26.738281 -10.164062 24.375 -10.90625 L 16.875 -12.609375 C 15.34375 -12.953125 14.113281 -13.554688 13.1875 -14.421875 C 12.269531 -15.296875 11.8125 -16.285156 11.8125 -17.390625 C 11.8125 -19.097656 12.875 -20.800781 15 -22.5 C 16.082031 -23.382812 17.347656 -24.128906 18.796875 -24.734375 C 20.242188 -25.347656 21.769531 -25.816406 23.375 -26.140625 C 24.976562 -26.472656 26.519531 -26.640625 28 -26.640625 C 30.101562 -26.640625 31.898438 -26.3125 33.390625 -25.65625 C 34.890625 -25.007812 35.820312 -24.054688 36.1875 -22.796875 C 36.269531 -22.515625 36.3125 -22.203125 36.3125 -21.859375 C 36.3125 -20.128906 35.445312 -18.925781 33.71875 -18.25 C 32.664062 -17.820312 31.769531 -17.609375 31.03125 -17.609375 C 30.570312 -17.609375 30.21875 -17.691406 29.96875 -17.859375 C 29.90625 -17.910156 29.875 -17.984375 29.875 -18.078125 C 29.875 -18.273438 30.273438 -18.382812 31.078125 -18.40625 C 31.554688 -18.4375 31.953125 -18.476562 32.265625 -18.53125 C 32.578125 -18.59375 32.804688 -18.65625 32.953125 -18.71875 C 34.023438 -19.28125 34.5625 -20.117188 34.5625 -21.234375 C 34.5625 -21.796875 34.40625 -22.390625 34.09375 -23.015625 C 33.21875 -24.640625 31.019531 -25.453125 27.5 -25.453125 C 26.21875 -25.453125 24.894531 -25.316406 23.53125 -25.046875 C 22.164062 -24.773438 20.867188 -24.375 19.640625 -23.84375 C 18.421875 -23.320312 17.382812 -22.660156 16.53125 -21.859375 C 15.0625 -20.503906 14.328125 -19.285156 14.328125 -18.203125 C 14.328125 -17.378906 14.726562 -16.644531 15.53125 -16 C 16.34375 -15.363281 17.570312 -14.890625 19.21875 -14.578125 L 24.25 -13.640625 C 26.1875 -13.265625 27.75 -12.710938 28.9375 -11.984375 C 30.132812 -11.265625 30.734375 -10.171875 30.734375 -8.703125 C 30.734375 -7.390625 30.40625 -6.164062 29.75 -5.03125 C 29.09375 -3.894531 28.21875 -2.878906 27.125 -1.984375 C 26.03125 -1.085938 24.789062 -0.339844 23.40625 0.25 C 20.25 1.644531 16.523438 2.34375 12.234375 2.34375 C 11.691406 2.34375 11.148438 2.328125 10.609375 2.296875 C 10.066406 2.273438 9.539062 2.234375 9.03125 2.171875 C 9.4375 2.398438 9.941406 2.628906 10.546875 2.859375 C 11.160156 3.085938 11.863281 3.300781 12.65625 3.5 C 12.738281 3.519531 12.78125 3.578125 12.78125 3.671875 C 12.78125 3.921875 12.484375 4.046875 11.890625 4.046875 Z M 6.265625 0.765625 C 5.492188 -0.0859375 4.894531 -0.96875 4.46875 -1.875 C 3.84375 -3.289062 3.375 -5.039062 3.0625 -7.125 C 2.84375 -8.625 2.601562 -9.375 2.34375 -9.375 C 2.113281 -9.375 1.804688 -9.203125 1.421875 -8.859375 C 1.046875 -8.523438 0.859375 -7.800781 0.859375 -6.6875 C 0.859375 -4.53125 1.625 -2.65625 3.15625 -1.0625 C 3.925781 -0.269531 4.960938 0.335938 6.265625 0.765625 Z M 6.265625 0.765625 "/></g></g></g><g fill="#f4b61c" fill-opacity="1"><g transform="translate(34.042599, 34.997938)"><g><path d="M 2.171875 0.546875 C 1.265625 0.546875 0.441406 0.257812 -0.296875 -0.3125 C -1.035156 -0.894531 -1.40625 -1.671875 -1.40625 -2.640625 C -1.40625 -4.660156 -0.167969 -6.960938 2.296875 -9.546875 C 4.828125 -12.160156 7.085938 -13.46875 9.078125 -13.46875 C 9.734375 -13.46875 10.265625 -13.289062 10.671875 -12.9375 C 11.085938 -12.582031 11.296875 -12.148438 11.296875 -11.640625 C 11.296875 -10.046875 10.03125 -8.484375 7.5 -6.953125 C 5.257812 -5.585938 3.367188 -4.90625 1.828125 -4.90625 C 1.597656 -4.90625 1.398438 -4.929688 1.234375 -4.984375 C 0.804688 -4.222656 0.59375 -3.414062 0.59375 -2.5625 C 0.59375 -1.082031 1.289062 -0.34375 2.6875 -0.34375 C 4.101562 -0.34375 5.9375 -1.296875 8.1875 -3.203125 C 9.914062 -4.585938 11.390625 -6.0625 12.609375 -7.625 C 12.867188 -7.96875 13.097656 -8.140625 13.296875 -8.140625 C 13.472656 -8.140625 13.5625 -8.054688 13.5625 -7.890625 C 13.5625 -7.710938 13.445312 -7.46875 13.21875 -7.15625 C 12.414062 -6.101562 11.5625 -5.132812 10.65625 -4.25 C 9.75 -3.375 8.769531 -2.566406 7.71875 -1.828125 C 5.53125 -0.242188 3.679688 0.546875 2.171875 0.546875 Z M 2.421875 -5.84375 C 3.503906 -5.84375 4.914062 -6.378906 6.65625 -7.453125 C 7.21875 -7.859375 7.773438 -8.304688 8.328125 -8.796875 C 8.890625 -9.296875 9.347656 -9.800781 9.703125 -10.3125 C 10.054688 -10.820312 10.234375 -11.273438 10.234375 -11.671875 C 10.234375 -12.046875 9.929688 -12.234375 9.328125 -12.234375 C 8.484375 -12.234375 7.289062 -11.59375 5.75 -10.3125 C 5.007812 -9.6875 4.296875 -9.003906 3.609375 -8.265625 C 2.929688 -7.523438 2.351562 -6.742188 1.875 -5.921875 C 2.039062 -5.867188 2.222656 -5.84375 2.421875 -5.84375 Z M 2.421875 -5.84375 "/></g></g></g><g fill="#f4b61c" fill-opacity="1"><g transform="translate(44.996043, 34.997938)"><g><path d="M 2.859375 0.21875 C 2.171875 0.21875 1.484375 -0.0195312 0.796875 -0.5 C 0.117188 -0.988281 -0.257812 -1.5625 -0.34375 -2.21875 C -0.625 -4.40625 0.753906 -7.003906 3.796875 -10.015625 C 6.804688 -13.023438 9.519531 -14.53125 11.9375 -14.53125 C 12.59375 -14.53125 13.101562 -14.375 13.46875 -14.0625 C 13.664062 -13.863281 13.8125 -13.59375 13.90625 -13.25 C 14.007812 -12.914062 14.09375 -12.75 14.15625 -12.75 C 14.269531 -12.75 14.367188 -12.769531 14.453125 -12.8125 C 14.535156 -12.851562 14.632812 -12.875 14.75 -12.875 C 15.09375 -12.875 15.390625 -12.742188 15.640625 -12.484375 C 15.898438 -12.234375 16.039062 -12.007812 16.0625 -11.8125 C 16.09375 -11.75 15.1875 -10.34375 13.34375 -7.59375 C 11.5 -4.882812 10.660156 -3.050781 10.828125 -2.09375 C 10.972656 -1.4375 11.285156 -1.109375 11.765625 -1.109375 C 13.242188 -1.109375 15.941406 -3.550781 19.859375 -8.4375 C 19.941406 -8.550781 20.03125 -8.609375 20.125 -8.609375 C 20.257812 -8.609375 20.328125 -8.507812 20.328125 -8.3125 C 20.328125 -8.082031 20.203125 -7.796875 19.953125 -7.453125 C 16.335938 -2.597656 13.566406 -0.171875 11.640625 -0.171875 C 11.378906 -0.171875 11.132812 -0.210938 10.90625 -0.296875 C 9.65625 -0.773438 9.03125 -1.710938 9.03125 -3.109375 C 9.03125 -3.597656 9.085938 -4.082031 9.203125 -4.5625 L 6.5625 -2 C 5.769531 -1.207031 5.050781 -0.640625 4.40625 -0.296875 C 3.769531 0.0429688 3.253906 0.21875 2.859375 0.21875 Z M 2.46875 -0.71875 C 4.113281 -0.71875 6.359375 -2.523438 9.203125 -6.140625 L 13.71875 -12.359375 C 13.5 -12.753906 13.128906 -12.953125 12.609375 -12.953125 C 10.878906 -12.953125 8.535156 -11.5625 5.578125 -8.78125 C 2.515625 -5.9375 1.140625 -3.59375 1.453125 -1.75 C 1.585938 -1.0625 1.925781 -0.71875 2.46875 -0.71875 Z M 2.46875 -0.71875 "/></g></g></g><g fill="#f4b61c" fill-opacity="1"><g transform="translate(62.555655, 34.997938)"><g><path d="M 10.875 0.078125 C 10.101562 0.078125 9.5625 -0.140625 9.25 -0.578125 C 8.9375 -1.015625 8.78125 -1.5625 8.78125 -2.21875 C 8.78125 -3.863281 9.347656 -5.625 10.484375 -7.5 L 13.21875 -11.9375 C 11.28125 -10.507812 9.359375 -8.734375 7.453125 -6.609375 C 6.941406 -6.035156 6.367188 -5.363281 5.734375 -4.59375 C 5.097656 -3.832031 4.394531 -2.953125 3.625 -1.953125 C 2.601562 -0.617188 1.992188 0.046875 1.796875 0.046875 C 1.390625 0.046875 1.054688 -0.128906 0.796875 -0.484375 C 0.546875 -0.835938 0.421875 -1.160156 0.421875 -1.453125 C 0.421875 -1.679688 0.492188 -2.097656 0.640625 -2.703125 C 0.785156 -3.316406 0.957031 -3.851562 1.15625 -4.3125 C 1.351562 -4.789062 1.554688 -5.265625 1.765625 -5.734375 C 1.984375 -6.203125 2.191406 -6.664062 2.390625 -7.125 L -0.171875 -4.4375 C -0.222656 -4.375 -0.390625 -4.203125 -0.671875 -3.921875 C -0.960938 -3.640625 -1.191406 -3.5 -1.359375 -3.5 C -1.503906 -3.5 -1.578125 -3.597656 -1.578125 -3.796875 C -1.578125 -3.847656 -1.554688 -3.921875 -1.515625 -4.015625 C -1.472656 -4.117188 -1.378906 -4.242188 -1.234375 -4.390625 C -0.804688 -4.816406 -0.367188 -5.269531 0.078125 -5.75 C 0.535156 -6.238281 1.003906 -6.796875 1.484375 -7.421875 C 1.742188 -7.734375 2.128906 -8.207031 2.640625 -8.84375 C 3.148438 -9.476562 3.710938 -10.164062 4.328125 -10.90625 C 4.941406 -11.644531 5.515625 -12.328125 6.046875 -12.953125 C 6.191406 -13.148438 6.347656 -13.285156 6.515625 -13.359375 C 6.691406 -13.429688 6.804688 -13.46875 6.859375 -13.46875 C 7.628906 -13.46875 8.015625 -13.171875 8.015625 -12.578125 C 8.015625 -12.398438 7.972656 -12.226562 7.890625 -12.0625 C 5.328125 -8.539062 3.789062 -5.851562 3.28125 -4 C 6.582031 -7.300781 9.234375 -9.78125 11.234375 -11.4375 C 13.234375 -13.101562 14.660156 -13.9375 15.515625 -13.9375 C 15.972656 -13.9375 16.320312 -13.863281 16.5625 -13.71875 C 16.800781 -13.582031 16.921875 -13.316406 16.921875 -12.921875 C 16.921875 -12.773438 16.90625 -12.660156 16.875 -12.578125 C 16.789062 -12.378906 16.207031 -11.582031 15.125 -10.1875 C 14.476562 -9.394531 13.90625 -8.671875 13.40625 -8.015625 C 12.90625 -7.359375 12.5 -6.789062 12.1875 -6.3125 C 11.675781 -5.507812 11.289062 -4.757812 11.03125 -4.0625 C 10.78125 -3.375 10.65625 -2.785156 10.65625 -2.296875 C 10.65625 -2.097656 10.679688 -1.859375 10.734375 -1.578125 C 10.796875 -1.296875 10.96875 -1.15625 11.25 -1.15625 C 11.90625 -1.15625 12.929688 -1.722656 14.328125 -2.859375 C 14.972656 -3.421875 15.578125 -3.992188 16.140625 -4.578125 C 16.710938 -5.160156 17.257812 -5.738281 17.78125 -6.3125 C 17.882812 -6.425781 18.066406 -6.644531 18.328125 -6.96875 C 18.585938 -7.289062 18.742188 -7.453125 18.796875 -7.453125 C 18.910156 -7.453125 18.96875 -7.34375 18.96875 -7.125 C 18.96875 -7.007812 18.898438 -6.816406 18.765625 -6.546875 C 18.640625 -6.273438 18.507812 -6.066406 18.375 -5.921875 C 18.0625 -5.554688 17.597656 -5.046875 16.984375 -4.390625 C 16.367188 -3.734375 15.6875 -3.0625 14.9375 -2.375 C 14.1875 -1.695312 13.453125 -1.117188 12.734375 -0.640625 C 12.023438 -0.160156 11.40625 0.078125 10.875 0.078125 Z M 10.875 0.078125 "/></g></g></g><g fill="#f4b61c" fill-opacity="1"><g transform="translate(79.731679, 34.997938)"><g/></g></g><g fill="#f4b61c" fill-opacity="1"><g transform="translate(88.170524, 34.997938)"><g><path d="M 6.515625 4.9375 C 2.140625 4.570312 -0.046875 2.324219 -0.046875 -1.796875 C -0.046875 -4.234375 0.722656 -6.816406 2.265625 -9.546875 C 3.171875 -11.191406 4.3125 -12.796875 5.6875 -14.359375 C 7.0625 -15.921875 8.566406 -17.332031 10.203125 -18.59375 C 11.835938 -19.863281 13.515625 -20.867188 15.234375 -21.609375 C 16.953125 -22.347656 18.609375 -22.71875 20.203125 -22.71875 C 23.015625 -22.71875 24.421875 -21.679688 24.421875 -19.609375 C 24.421875 -18.210938 23.992188 -16.664062 23.140625 -14.96875 C 22.285156 -13.257812 21.421875 -12.175781 20.546875 -11.71875 C 20.460938 -11.6875 20.363281 -11.671875 20.25 -11.671875 C 20.164062 -11.671875 20.125 -11.703125 20.125 -11.765625 L 21.53125 -14.0625 C 22.488281 -15.65625 22.96875 -17.050781 22.96875 -18.25 C 22.96875 -19.09375 22.738281 -19.898438 22.28125 -20.671875 C 21.832031 -21.441406 21.023438 -21.828125 19.859375 -21.828125 C 18.441406 -21.828125 16.984375 -21.425781 15.484375 -20.625 C 13.992188 -19.832031 12.550781 -18.78125 11.15625 -17.46875 C 9.769531 -16.164062 8.507812 -14.722656 7.375 -13.140625 C 6.238281 -11.566406 5.328125 -10.015625 4.640625 -8.484375 C 3.191406 -5.210938 2.46875 -2.566406 2.46875 -0.546875 C 2.46875 2.484375 4.019531 4 7.125 4 C 10.070312 4 14.078125 2.097656 19.140625 -1.703125 C 20.304688 -2.585938 21.804688 -3.820312 23.640625 -5.40625 C 25.472656 -7 27.625 -8.929688 30.09375 -11.203125 C 29.75 -11.179688 29.320312 -11.148438 28.8125 -11.109375 C 28.300781 -11.066406 27.707031 -10.988281 27.03125 -10.875 C 26.738281 -10.8125 26.460938 -10.757812 26.203125 -10.71875 C 25.953125 -10.675781 25.710938 -10.65625 25.484375 -10.65625 C 24.921875 -10.707031 24.679688 -10.847656 24.765625 -11.078125 C 24.878906 -12.128906 25.421875 -12.65625 26.390625 -12.65625 C 27.265625 -12.539062 28.09375 -12.453125 28.875 -12.390625 C 29.65625 -12.335938 30.398438 -12.3125 31.109375 -12.3125 C 32.222656 -13.34375 33.695312 -14.773438 35.53125 -16.609375 C 37.363281 -18.441406 39.546875 -20.691406 42.078125 -23.359375 C 45.335938 -26.796875 47.320312 -28.515625 48.03125 -28.515625 C 48.34375 -28.515625 48.5 -28.226562 48.5 -27.65625 C 48.5 -27.4375 48.472656 -27.15625 48.421875 -26.8125 C 48.367188 -26.46875 48.285156 -26.070312 48.171875 -25.625 C 47.878906 -24.539062 47.578125 -23.882812 47.265625 -23.65625 C 46.390625 -23.03125 45.660156 -22.226562 45.078125 -21.25 C 44.492188 -20.269531 43.90625 -19.179688 43.3125 -17.984375 C 42.707031 -16.765625 42.15625 -15.675781 41.65625 -14.71875 C 41.164062 -13.769531 40.722656 -12.925781 40.328125 -12.1875 L 44.453125 -12.28125 C 45.484375 -12.28125 46 -12.207031 46 -12.0625 C 46 -12.03125 45.96875 -11.988281 45.90625 -11.9375 C 45.425781 -11.625 43.378906 -11.335938 39.765625 -11.078125 C 37.128906 -5.941406 35.8125 -2.421875 35.8125 -0.515625 C 35.8125 0.792969 36.222656 1.453125 37.046875 1.453125 C 37.359375 1.453125 37.753906 1.253906 38.234375 0.859375 C 38.691406 0.484375 38.976562 0.296875 39.09375 0.296875 C 39.09375 0.242188 39.101562 0.226562 39.125 0.25 C 39.15625 0.28125 39.144531 0.296875 39.09375 0.296875 C 38.945312 0.804688 38.523438 1.265625 37.828125 1.671875 C 37.128906 2.085938 36.398438 2.296875 35.640625 2.296875 C 34.921875 2.296875 34.445312 2.066406 34.21875 1.609375 C 34 1.160156 33.890625 0.539062 33.890625 -0.25 C 33.890625 -3.125 34.984375 -6.773438 37.171875 -11.203125 L 32.046875 -11.078125 C 28.242188 -7.359375 24.425781 -4.09375 20.59375 -1.28125 C 14.476562 3.152344 9.785156 5.226562 6.515625 4.9375 Z M 37.546875 -12.3125 C 37.890625 -12.96875 38.570312 -14.15625 39.59375 -15.875 C 40.625 -17.59375 42.003906 -19.832031 43.734375 -22.59375 L 32.828125 -12.359375 Z M 37.546875 -12.3125 "/></g></g></g><g fill="#f4b61c" fill-opacity="1"><g transform="translate(131.64335, 34.997938)"><g><path d="M 3.234375 0.078125 C 2.410156 0.078125 1.644531 -0.125 0.9375 -0.53125 C 0.226562 -0.945312 -0.125 -1.632812 -0.125 -2.59375 C -0.125 -3.9375 0.347656 -5.53125 1.296875 -7.375 C 2.253906 -9.21875 3.34375 -11.132812 4.5625 -13.125 C 7.882812 -18.53125 10.242188 -21.234375 11.640625 -21.234375 C 11.921875 -21.234375 12.207031 -21.125 12.5 -20.90625 C 12.800781 -20.695312 12.96875 -20.460938 13 -20.203125 L 10.015625 -16.203125 C 8.847656 -14.640625 7.796875 -13.195312 6.859375 -11.875 C 5.921875 -10.550781 5.113281 -9.363281 4.4375 -8.3125 C 4.09375 -7.769531 3.707031 -7.15625 3.28125 -6.46875 C 2.851562 -5.789062 2.472656 -5.085938 2.140625 -4.359375 C 1.816406 -3.640625 1.65625 -2.910156 1.65625 -2.171875 C 1.65625 -1.828125 1.753906 -1.519531 1.953125 -1.25 C 2.160156 -0.988281 2.519531 -0.859375 3.03125 -0.859375 C 3.9375 -0.859375 5.128906 -1.347656 6.609375 -2.328125 C 8.085938 -3.304688 9.550781 -4.660156 11 -6.390625 C 11.132812 -6.566406 11.285156 -6.722656 11.453125 -6.859375 C 11.628906 -7.003906 11.773438 -7.078125 11.890625 -7.078125 C 12.035156 -7.078125 12.109375 -6.988281 12.109375 -6.8125 C 12.109375 -6.726562 12.015625 -6.566406 11.828125 -6.328125 C 11.640625 -6.085938 11.488281 -5.894531 11.375 -5.75 L 10.359375 -4.609375 C 9.785156 -3.984375 9.109375 -3.300781 8.328125 -2.5625 C 7.546875 -1.820312 6.722656 -1.195312 5.859375 -0.6875 C 4.992188 -0.175781 4.117188 0.078125 3.234375 0.078125 Z M 3.234375 0.078125 "/></g></g></g><g fill="#f4b61c" fill-opacity="1"><g transform="translate(142.000107, 34.997938)"><g><path d="M 2.171875 0.546875 C 1.265625 0.546875 0.441406 0.257812 -0.296875 -0.3125 C -1.035156 -0.894531 -1.40625 -1.671875 -1.40625 -2.640625 C -1.40625 -4.660156 -0.167969 -6.960938 2.296875 -9.546875 C 4.828125 -12.160156 7.085938 -13.46875 9.078125 -13.46875 C 9.734375 -13.46875 10.265625 -13.289062 10.671875 -12.9375 C 11.085938 -12.582031 11.296875 -12.148438 11.296875 -11.640625 C 11.296875 -10.046875 10.03125 -8.484375 7.5 -6.953125 C 5.257812 -5.585938 3.367188 -4.90625 1.828125 -4.90625 C 1.597656 -4.90625 1.398438 -4.929688 1.234375 -4.984375 C 0.804688 -4.222656 0.59375 -3.414062 0.59375 -2.5625 C 0.59375 -1.082031 1.289062 -0.34375 2.6875 -0.34375 C 4.101562 -0.34375 5.9375 -1.296875 8.1875 -3.203125 C 9.914062 -4.585938 11.390625 -6.0625 12.609375 -7.625 C 12.867188 -7.96875 13.097656 -8.140625 13.296875 -8.140625 C 13.472656 -8.140625 13.5625 -8.054688 13.5625 -7.890625 C 13.5625 -7.710938 13.445312 -7.46875 13.21875 -7.15625 C 12.414062 -6.101562 11.5625 -5.132812 10.65625 -4.25 C 9.75 -3.375 8.769531 -2.566406 7.71875 -1.828125 C 5.53125 -0.242188 3.679688 0.546875 2.171875 0.546875 Z M 2.421875 -5.84375 C 3.503906 -5.84375 4.914062 -6.378906 6.65625 -7.453125 C 7.21875 -7.859375 7.773438 -8.304688 8.328125 -8.796875 C 8.890625 -9.296875 9.347656 -9.800781 9.703125 -10.3125 C 10.054688 -10.820312 10.234375 -11.273438 10.234375 -11.671875 C 10.234375 -12.046875 9.929688 -12.234375 9.328125 -12.234375 C 8.484375 -12.234375 7.289062 -11.59375 5.75 -10.3125 C 5.007812 -9.6875 4.296875 -9.003906 3.609375 -8.265625 C 2.929688 -7.523438 2.351562 -6.742188 1.875 -5.921875 C 2.039062 -5.867188 2.222656 -5.84375 2.421875 -5.84375 Z M 2.421875 -5.84375 "/></g></g></g><g fill="#f4b61c" fill-opacity="1"><g transform="translate(152.953551, 34.997938)"><g><path d="M -0.765625 4.34375 C -1.109375 4.34375 -1.28125 4.1875 -1.28125 3.875 C -1.28125 3.789062 -1.25 3.722656 -1.1875 3.671875 C 1.445312 -0.503906 4.300781 -4.171875 7.375 -7.328125 C 7.40625 -8.015625 7.429688 -8.90625 7.453125 -10 C 7.484375 -11.09375 7.53125 -12.390625 7.59375 -13.890625 C 7.28125 -13.835938 6.753906 -13.363281 6.015625 -12.46875 C 5.273438 -11.570312 4.40625 -10.398438 3.40625 -8.953125 C 2.4375 -7.523438 1.535156 -6.34375 0.703125 -5.40625 C -0.128906 -4.46875 -0.601562 -3.957031 -0.71875 -3.875 C -0.914062 -3.707031 -1.101562 -3.625 -1.28125 -3.625 C -1.414062 -3.625 -1.484375 -3.695312 -1.484375 -3.84375 C -1.484375 -3.945312 -1.429688 -4.0625 -1.328125 -4.1875 C -1.234375 -4.320312 -1.003906 -4.585938 -0.640625 -4.984375 C -0.128906 -5.554688 0.304688 -6.0625 0.671875 -6.5 C 1.046875 -6.9375 1.410156 -7.410156 1.765625 -7.921875 C 2.117188 -8.441406 2.539062 -9.066406 3.03125 -9.796875 C 3.34375 -10.253906 3.734375 -10.832031 4.203125 -11.53125 C 4.671875 -12.226562 5.148438 -12.898438 5.640625 -13.546875 C 6.140625 -14.203125 6.578125 -14.6875 6.953125 -15 C 7.234375 -15.257812 7.535156 -15.445312 7.859375 -15.5625 C 8.191406 -15.675781 8.5 -15.734375 8.78125 -15.734375 C 9.125 -15.734375 9.441406 -15.660156 9.734375 -15.515625 C 10.035156 -15.367188 10.144531 -15.054688 10.0625 -14.578125 C 10.0625 -14.546875 9.992188 -14.097656 9.859375 -13.234375 C 9.734375 -12.367188 9.613281 -11.097656 9.5 -9.421875 C 10.039062 -9.929688 11.113281 -10.890625 12.71875 -12.296875 C 14.320312 -13.703125 16.390625 -15.484375 18.921875 -17.640625 C 18.984375 -17.703125 19.054688 -17.734375 19.140625 -17.734375 C 19.335938 -17.734375 19.550781 -17.609375 19.78125 -17.359375 C 20.007812 -17.117188 20.125 -16.875 20.125 -16.625 C 20.125 -16.394531 20.007812 -16.164062 19.78125 -15.9375 C 18.894531 -15.226562 17.1875 -13.953125 14.65625 -12.109375 C 13.519531 -11.304688 12.503906 -10.535156 11.609375 -9.796875 C 10.710938 -9.066406 9.984375 -8.429688 9.421875 -7.890625 C 9.390625 -7.597656 9.375 -7.3125 9.375 -7.03125 C 9.375 -6.75 9.375 -6.476562 9.375 -6.21875 C 9.375 -4.457031 9.550781 -3.144531 9.90625 -2.28125 C 10.257812 -1.414062 10.835938 -0.984375 11.640625 -0.984375 C 12.515625 -0.984375 13.625 -1.539062 14.96875 -2.65625 C 16.320312 -3.78125 17.710938 -5.164062 19.140625 -6.8125 C 19.421875 -7.101562 19.632812 -7.25 19.78125 -7.25 C 19.914062 -7.25 19.984375 -7.160156 19.984375 -6.984375 C 19.984375 -6.929688 19.960938 -6.847656 19.921875 -6.734375 C 19.878906 -6.617188 19.789062 -6.476562 19.65625 -6.3125 C 18.738281 -5.257812 17.75 -4.191406 16.6875 -3.109375 C 15.625 -2.023438 14.550781 -1.117188 13.46875 -0.390625 C 12.382812 0.324219 11.347656 0.6875 10.359375 0.6875 C 9.503906 0.6875 8.863281 0.367188 8.4375 -0.265625 C 8.007812 -0.910156 7.734375 -1.726562 7.609375 -2.71875 C 7.484375 -3.71875 7.40625 -4.757812 7.375 -5.84375 C 3.90625 -2.144531 1.304688 1.191406 -0.421875 4.171875 C -0.503906 4.285156 -0.617188 4.34375 -0.765625 4.34375 Z M -0.765625 4.34375 "/></g></g></g><g fill="#f4b61c" fill-opacity="1"><g transform="translate(171.152468, 34.997938)"><g><path d="M 2.859375 0.21875 C 2.171875 0.21875 1.484375 -0.0195312 0.796875 -0.5 C 0.117188 -0.988281 -0.257812 -1.5625 -0.34375 -2.21875 C -0.625 -4.40625 0.753906 -7.003906 3.796875 -10.015625 C 6.804688 -13.023438 9.519531 -14.53125 11.9375 -14.53125 C 12.59375 -14.53125 13.101562 -14.375 13.46875 -14.0625 C 13.664062 -13.863281 13.8125 -13.59375 13.90625 -13.25 C 14.007812 -12.914062 14.09375 -12.75 14.15625 -12.75 C 14.269531 -12.75 14.367188 -12.769531 14.453125 -12.8125 C 14.535156 -12.851562 14.632812 -12.875 14.75 -12.875 C 15.09375 -12.875 15.390625 -12.742188 15.640625 -12.484375 C 15.898438 -12.234375 16.039062 -12.007812 16.0625 -11.8125 C 16.09375 -11.75 15.1875 -10.34375 13.34375 -7.59375 C 11.5 -4.882812 10.660156 -3.050781 10.828125 -2.09375 C 10.972656 -1.4375 11.285156 -1.109375 11.765625 -1.109375 C 13.242188 -1.109375 15.941406 -3.550781 19.859375 -8.4375 C 19.941406 -8.550781 20.03125 -8.609375 20.125 -8.609375 C 20.257812 -8.609375 20.328125 -8.507812 20.328125 -8.3125 C 20.328125 -8.082031 20.203125 -7.796875 19.953125 -7.453125 C 16.335938 -2.597656 13.566406 -0.171875 11.640625 -0.171875 C 11.378906 -0.171875 11.132812 -0.210938 10.90625 -0.296875 C 9.65625 -0.773438 9.03125 -1.710938 9.03125 -3.109375 C 9.03125 -3.597656 9.085938 -4.082031 9.203125 -4.5625 L 6.5625 -2 C 5.769531 -1.207031 5.050781 -0.640625 4.40625 -0.296875 C 3.769531 0.0429688 3.253906 0.21875 2.859375 0.21875 Z M 2.46875 -0.71875 C 4.113281 -0.71875 6.359375 -2.523438 9.203125 -6.140625 L 13.71875 -12.359375 C 13.5 -12.753906 13.128906 -12.953125 12.609375 -12.953125 C 10.878906 -12.953125 8.535156 -11.5625 5.578125 -8.78125 C 2.515625 -5.9375 1.140625 -3.59375 1.453125 -1.75 C 1.585938 -1.0625 1.925781 -0.71875 2.46875 -0.71875 Z M 2.46875 -0.71875 "/></g></g></g><g fill="#f4b61c" fill-opacity="1"><g transform="translate(188.71208, 34.997938)"><g><path d="M 10.875 0.078125 C 10.101562 0.078125 9.5625 -0.140625 9.25 -0.578125 C 8.9375 -1.015625 8.78125 -1.5625 8.78125 -2.21875 C 8.78125 -3.863281 9.347656 -5.625 10.484375 -7.5 L 13.21875 -11.9375 C 11.28125 -10.507812 9.359375 -8.734375 7.453125 -6.609375 C 6.941406 -6.035156 6.367188 -5.363281 5.734375 -4.59375 C 5.097656 -3.832031 4.394531 -2.953125 3.625 -1.953125 C 2.601562 -0.617188 1.992188 0.046875 1.796875 0.046875 C 1.390625 0.046875 1.054688 -0.128906 0.796875 -0.484375 C 0.546875 -0.835938 0.421875 -1.160156 0.421875 -1.453125 C 0.421875 -1.679688 0.492188 -2.097656 0.640625 -2.703125 C 0.785156 -3.316406 0.957031 -3.851562 1.15625 -4.3125 C 1.351562 -4.789062 1.554688 -5.265625 1.765625 -5.734375 C 1.984375 -6.203125 2.191406 -6.664062 2.390625 -7.125 L -0.171875 -4.4375 C -0.222656 -4.375 -0.390625 -4.203125 -0.671875 -3.921875 C -0.960938 -3.640625 -1.191406 -3.5 -1.359375 -3.5 C -1.503906 -3.5 -1.578125 -3.597656 -1.578125 -3.796875 C -1.578125 -3.847656 -1.554688 -3.921875 -1.515625 -4.015625 C -1.472656 -4.117188 -1.378906 -4.242188 -1.234375 -4.390625 C -0.804688 -4.816406 -0.367188 -5.269531 0.078125 -5.75 C 0.535156 -6.238281 1.003906 -6.796875 1.484375 -7.421875 C 1.742188 -7.734375 2.128906 -8.207031 2.640625 -8.84375 C 3.148438 -9.476562 3.710938 -10.164062 4.328125 -10.90625 C 4.941406 -11.644531 5.515625 -12.328125 6.046875 -12.953125 C 6.191406 -13.148438 6.347656 -13.285156 6.515625 -13.359375 C 6.691406 -13.429688 6.804688 -13.46875 6.859375 -13.46875 C 7.628906 -13.46875 8.015625 -13.171875 8.015625 -12.578125 C 8.015625 -12.398438 7.972656 -12.226562 7.890625 -12.0625 C 5.328125 -8.539062 3.789062 -5.851562 3.28125 -4 C 6.582031 -7.300781 9.234375 -9.78125 11.234375 -11.4375 C 13.234375 -13.101562 14.660156 -13.9375 15.515625 -13.9375 C 15.972656 -13.9375 16.320312 -13.863281 16.5625 -13.71875 C 16.800781 -13.582031 16.921875 -13.316406 16.921875 -12.921875 C 16.921875 -12.773438 16.90625 -12.660156 16.875 -12.578125 C 16.789062 -12.378906 16.207031 -11.582031 15.125 -10.1875 C 14.476562 -9.394531 13.90625 -8.671875 13.40625 -8.015625 C 12.90625 -7.359375 12.5 -6.789062 12.1875 -6.3125 C 11.675781 -5.507812 11.289062 -4.757812 11.03125 -4.0625 C 10.78125 -3.375 10.65625 -2.785156 10.65625 -2.296875 C 10.65625 -2.097656 10.679688 -1.859375 10.734375 -1.578125 C 10.796875 -1.296875 10.96875 -1.15625 11.25 -1.15625 C 11.90625 -1.15625 12.929688 -1.722656 14.328125 -2.859375 C 14.972656 -3.421875 15.578125 -3.992188 16.140625 -4.578125 C 16.710938 -5.160156 17.257812 -5.738281 17.78125 -6.3125 C 17.882812 -6.425781 18.066406 -6.644531 18.328125 -6.96875 C 18.585938 -7.289062 18.742188 -7.453125 18.796875 -7.453125 C 18.910156 -7.453125 18.96875 -7.34375 18.96875 -7.125 C 18.96875 -7.007812 18.898438 -6.816406 18.765625 -6.546875 C 18.640625 -6.273438 18.507812 -6.066406 18.375 -5.921875 C 18.0625 -5.554688 17.597656 -5.046875 16.984375 -4.390625 C 16.367188 -3.734375 15.6875 -3.0625 14.9375 -2.375 C 14.1875 -1.695312 13.453125 -1.117188 12.734375 -0.640625 C 12.023438 -0.160156 11.40625 0.078125 10.875 0.078125 Z M 10.875 0.078125 "/></g></g></g><g fill="#f4b61c" fill-opacity="1"><g transform="translate(205.888114, 34.997938)"><g><path d="M 2.859375 0.21875 C 2.003906 0.21875 1.273438 -0.015625 0.671875 -0.484375 C 0.078125 -0.953125 -0.257812 -1.53125 -0.34375 -2.21875 C -0.457031 -3.125 -0.320312 -4.035156 0.0625 -4.953125 C 0.445312 -5.878906 0.972656 -6.769531 1.640625 -7.625 C 2.304688 -8.476562 3.023438 -9.273438 3.796875 -10.015625 C 6.804688 -13.023438 9.519531 -14.53125 11.9375 -14.53125 C 12.757812 -14.53125 13.3125 -14.316406 13.59375 -13.890625 C 13.707031 -13.753906 13.835938 -13.429688 13.984375 -12.921875 C 17.160156 -18.085938 19.375 -20.671875 20.625 -20.671875 C 20.914062 -20.671875 21.21875 -20.597656 21.53125 -20.453125 C 21.84375 -20.316406 22 -20.132812 22 -19.90625 C 22 -19.757812 21.925781 -19.578125 21.78125 -19.359375 C 20.925781 -18.304688 20.070312 -17.257812 19.21875 -16.21875 C 18.363281 -15.175781 17.523438 -14.128906 16.703125 -13.078125 C 15.316406 -11.316406 14.195312 -9.78125 13.34375 -8.46875 C 12.488281 -7.164062 11.878906 -6.0625 11.515625 -5.15625 C 11.398438 -4.875 11.289062 -4.523438 11.1875 -4.109375 C 11.09375 -3.703125 11.046875 -3.285156 11.046875 -2.859375 C 11.046875 -2.316406 11.15625 -1.847656 11.375 -1.453125 C 11.601562 -1.054688 12.015625 -0.859375 12.609375 -0.859375 C 13.554688 -0.859375 14.707031 -1.3125 16.0625 -2.21875 C 17.425781 -3.125 19.019531 -4.613281 20.84375 -6.6875 C 20.957031 -6.800781 21.0625 -6.898438 21.15625 -6.984375 C 21.257812 -7.078125 21.367188 -7.132812 21.484375 -7.15625 C 21.734375 -7.21875 21.859375 -7.160156 21.859375 -6.984375 C 21.859375 -6.898438 21.773438 -6.742188 21.609375 -6.515625 C 20.734375 -5.460938 19.753906 -4.425781 18.671875 -3.40625 C 17.585938 -2.382812 16.484375 -1.539062 15.359375 -0.875 C 14.242188 -0.207031 13.203125 0.125 12.234375 0.125 C 11.265625 0.125 10.582031 -0.195312 10.1875 -0.84375 C 9.789062 -1.5 9.59375 -2.238281 9.59375 -3.0625 C 9.59375 -3.914062 9.75 -4.695312 10.0625 -5.40625 L 6.609375 -1.953125 C 5.835938 -1.191406 5.128906 -0.640625 4.484375 -0.296875 C 3.847656 0.0429688 3.304688 0.21875 2.859375 0.21875 Z M 2.46875 -0.71875 C 3.695312 -0.71875 5.726562 -2.394531 8.5625 -5.75 C 8.707031 -5.925781 9.207031 -6.5625 10.0625 -7.65625 C 10.914062 -8.75 12.125 -10.347656 13.6875 -12.453125 C 13.488281 -12.785156 13.144531 -12.953125 12.65625 -12.953125 C 10.894531 -12.953125 8.535156 -11.5625 5.578125 -8.78125 C 2.796875 -6.195312 1.40625 -4.023438 1.40625 -2.265625 C 1.40625 -1.234375 1.757812 -0.71875 2.46875 -0.71875 Z M 2.46875 -0.71875 "/></g></g></g><g fill="#f4b61c" fill-opacity="1"><g transform="translate(225.791835, 34.997938)"><g><path d="M 2.171875 0.546875 C 1.265625 0.546875 0.441406 0.257812 -0.296875 -0.3125 C -1.035156 -0.894531 -1.40625 -1.671875 -1.40625 -2.640625 C -1.40625 -4.660156 -0.167969 -6.960938 2.296875 -9.546875 C 4.828125 -12.160156 7.085938 -13.46875 9.078125 -13.46875 C 9.734375 -13.46875 10.265625 -13.289062 10.671875 -12.9375 C 11.085938 -12.582031 11.296875 -12.148438 11.296875 -11.640625 C 11.296875 -10.046875 10.03125 -8.484375 7.5 -6.953125 C 5.257812 -5.585938 3.367188 -4.90625 1.828125 -4.90625 C 1.597656 -4.90625 1.398438 -4.929688 1.234375 -4.984375 C 0.804688 -4.222656 0.59375 -3.414062 0.59375 -2.5625 C 0.59375 -1.082031 1.289062 -0.34375 2.6875 -0.34375 C 4.101562 -0.34375 5.9375 -1.296875 8.1875 -3.203125 C 9.914062 -4.585938 11.390625 -6.0625 12.609375 -7.625 C 12.867188 -7.96875 13.097656 -8.140625 13.296875 -8.140625 C 13.472656 -8.140625 13.5625 -8.054688 13.5625 -7.890625 C 13.5625 -7.710938 13.445312 -7.46875 13.21875 -7.15625 C 12.414062 -6.101562 11.5625 -5.132812 10.65625 -4.25 C 9.75 -3.375 8.769531 -2.566406 7.71875 -1.828125 C 5.53125 -0.242188 3.679688 0.546875 2.171875 0.546875 Z M 2.421875 -5.84375 C 3.503906 -5.84375 4.914062 -6.378906 6.65625 -7.453125 C 7.21875 -7.859375 7.773438 -8.304688 8.328125 -8.796875 C 8.890625 -9.296875 9.347656 -9.800781 9.703125 -10.3125 C 10.054688 -10.820312 10.234375 -11.273438 10.234375 -11.671875 C 10.234375 -12.046875 9.929688 -12.234375 9.328125 -12.234375 C 8.484375 -12.234375 7.289062 -11.59375 5.75 -10.3125 C 5.007812 -9.6875 4.296875 -9.003906 3.609375 -8.265625 C 2.929688 -7.523438 2.351562 -6.742188 1.875 -5.921875 C 2.039062 -5.867188 2.222656 -5.84375 2.421875 -5.84375 Z M 2.421875 -5.84375 "/></g></g></g><g fill="#f4b61c" fill-opacity="1"><g transform="translate(236.745279, 34.997938)"><g><path d="M 8.703125 0.21875 C 7.472656 0.21875 6.628906 -0.0976562 6.171875 -0.734375 C 5.722656 -1.378906 5.5 -2.242188 5.5 -3.328125 C 5.5 -4.515625 5.867188 -5.9375 6.609375 -7.59375 C 6.890625 -8.238281 7.1875 -8.820312 7.5 -9.34375 C 7.8125 -9.875 8.140625 -10.367188 8.484375 -10.828125 C 8.367188 -10.796875 8.269531 -10.78125 8.1875 -10.78125 C 8.101562 -10.78125 8.015625 -10.78125 7.921875 -10.78125 C 7.242188 -10.78125 6.675781 -11.265625 6.21875 -12.234375 L 3.0625 -8.140625 C 1.382812 -5.953125 0.363281 -4.859375 0 -4.859375 C -0.144531 -4.859375 -0.21875 -4.914062 -0.21875 -5.03125 C -0.21875 -5.175781 -0.144531 -5.359375 0 -5.578125 C 0.0820312 -5.753906 0.253906 -5.984375 0.515625 -6.265625 C 1.585938 -7.515625 2.578125 -8.75 3.484375 -9.96875 C 4.398438 -11.195312 5.15625 -12.394531 5.75 -13.5625 C 6.40625 -16.03125 7.234375 -17.265625 8.234375 -17.265625 C 8.878906 -17.265625 9.203125 -16.96875 9.203125 -16.375 C 9.203125 -15.832031 8.847656 -15.117188 8.140625 -14.234375 C 7.460938 -13.359375 7.125 -12.90625 7.125 -12.875 C 7.125 -12.28125 7.5625 -11.984375 8.4375 -11.984375 C 8.945312 -11.984375 9.515625 -12.164062 10.140625 -12.53125 L 11.25 -13.21875 C 11.3125 -13.238281 11.398438 -13.25 11.515625 -13.25 C 11.847656 -13.25 12.140625 -13.109375 12.390625 -12.828125 C 12.648438 -12.546875 12.738281 -12.289062 12.65625 -12.0625 L 9.71875 -8.359375 C 7.894531 -6.023438 6.984375 -4.148438 6.984375 -2.734375 C 6.984375 -1.453125 7.609375 -0.8125 8.859375 -0.8125 C 9.710938 -0.8125 10.628906 -1.066406 11.609375 -1.578125 C 12.585938 -2.085938 13.539062 -2.71875 14.46875 -3.46875 C 15.394531 -4.226562 16.171875 -4.960938 16.796875 -5.671875 L 17.8125 -6.859375 C 17.875 -6.921875 17.945312 -6.992188 18.03125 -7.078125 C 18.113281 -7.160156 18.1875 -7.203125 18.25 -7.203125 C 18.445312 -7.203125 18.546875 -7.101562 18.546875 -6.90625 C 18.546875 -6.84375 18.515625 -6.738281 18.453125 -6.59375 C 18.398438 -6.457031 18.300781 -6.304688 18.15625 -6.140625 L 16.796875 -4.609375 C 16.140625 -3.867188 15.332031 -3.117188 14.375 -2.359375 C 13.425781 -1.609375 12.445312 -0.988281 11.4375 -0.5 C 10.4375 -0.0195312 9.523438 0.21875 8.703125 0.21875 Z M 8.703125 0.21875 "/></g></g></g></g></g></svg>